<svg width="28" height="28" viewBox="0 0 16 16" fill="none" xmlns="http://www.w3.org/2000/svg">
<path fill-rule="evenodd" clip-rule="evenodd" d="M1 0H0V2H1H1.19783L3.02381 10.2169L3.19783 11H4H12H12.5662L12.8575 10.5145L15.8575 5.5145L16 5.27698V5V3V2H15H3.24662L2.97619 0.78307L2.80217 0H2H1ZM4.80217 9L3.69106 4H14V4.72301L11.4338 9H4.80217ZM5 16C6.10457 16 7 15.1046 7 14C7 12.8954 6.10457 12 5 12C3.89543 12 3 12.8954 3 14C3 15.1046 3.89543 16 5 16ZM11 16C12.1046 16 13 15.1046 13 14C13 12.8954 12.1046 12 11 12C9.89543 12 9 12.8954 9 14C9 15.1046 9.89543 16 11 16Z" fill="#FFFFFF"/>
</svg>
