<svg width="16" height="16" viewBox="0 0 16 16" fill="none" xmlns="http://www.w3.org/2000/svg">
<path fill-rule="evenodd" clip-rule="evenodd" d="M12 6C12 6.70348 11.7577 7.57806 11.2664 8.58121C10.7832 9.5677 10.1182 10.5595 9.41859 11.4632C8.93339 12.0899 8.44577 12.656 8.0159 13.1279C7.57943 12.6406 7.08233 12.0552 6.58771 11.4096C5.88472 10.4919 5.21654 9.4911 4.73128 8.50702C4.23554 7.50168 4 6.6522 4 6C4 3.71079 5.99544 2 8.00008 2C10.0047 2 12 3.71072 12 6ZM2 6C2 2.5 5.00016 0 8.00008 0C11 0 14 2.5 14 6C14 10.5 8.00008 16 8.00008 16C8.00008 16 2 10.3355 2 6ZM8 8C9.10457 8 10 7.10457 10 6C10 4.89543 9.10457 4 8 4C6.89543 4 6 4.89543 6 6C6 7.10457 6.89543 8 8 8Z" fill="black"/>
</svg>
