<svg width="16" height="16" viewBox="0 0 16 16" fill="none" xmlns="http://www.w3.org/2000/svg">
<g id="icon 16 / phone">
<path id="Vector" d="M14.9996 9.99997V14.9943C14.9996 14.9943 14.5 15 13.465 14.9943C11.299 14.7594 9.21832 14.0207 7.39025 12.8375C5.68946 11.7589 4.2475 10.3198 3.16675 8.6224C1.97712 6.78967 1.02615 4.4264 1.00573 2.53154C1 1.99997 1 0.999979 1 0.999979C1 0.999979 2.21107 1.00023 2.40652 1.00005H4.51827C4.85988 0.996691 5.99999 0.99997 5.99999 0.99997L6.99999 4.99997L5.49999 5.99997C6.50206 7.75876 8.23771 9.49989 9.99999 10.5L11 8.99997L14.9996 9.99997Z" stroke="#050E26" stroke-width="2"/>
</g>
</svg>
