<svg width="28" height="28" viewBox="0 0 28 28" fill="none" xmlns="http://www.w3.org/2000/svg">
<path d="M24.8889 0H3.11114C1.3922 0 0 1.3922 0 3.11114V24.8889C0 26.6078 1.3922 28 3.11114 28H24.8889C26.6078 28 28 26.6078 28 24.8889V3.11114C28 1.3922 26.6078 0 24.8889 0ZM7 23.3333C5.70886 23.3333 4.66667 22.2911 4.66667 21C4.66667 19.7089 5.70886 18.6667 7 18.6667C8.29113 18.6667 9.33333 19.7089 9.33333 21C9.33333 22.2911 8.29113 23.3333 7 23.3333ZM7 9.33333C5.70886 9.33333 4.66667 8.29113 4.66667 7C4.66667 5.70886 5.70886 4.66667 7 4.66667C8.29113 4.66667 9.33333 5.70886 9.33333 7C9.33333 8.29113 8.29113 9.33333 7 9.33333ZM14 16.3333C12.7089 16.3333 11.6667 15.2911 11.6667 14C11.6667 12.7089 12.7089 11.6667 14 11.6667C15.2911 11.6667 16.3333 12.7089 16.3333 14C16.3333 15.2911 15.2911 16.3333 14 16.3333ZM21 23.3333C19.7089 23.3333 18.6667 22.2911 18.6667 21C18.6667 19.7089 19.7089 18.6667 21 18.6667C22.2911 18.6667 23.3333 19.7089 23.3333 21C23.3333 22.2911 22.2911 23.3333 21 23.3333ZM21 9.33333C19.7089 9.33333 18.6667 8.29113 18.6667 7C18.6667 5.70886 19.7089 4.66667 21 4.66667C22.2911 4.66667 23.3333 5.70886 23.3333 7C23.3333 8.29113 22.2911 9.33333 21 9.33333Z" fill="#161616"/>
</svg>
