<?xml version="1.0" standalone="no"?>
<!DOCTYPE svg PUBLIC "-//W3C//DTD SVG 20010904//EN"
 "http://www.w3.org/TR/2001/REC-SVG-20010904/DTD/svg10.dtd">
<svg version="1.0" xmlns="http://www.w3.org/2000/svg"
 width="512.000000pt" height="512.000000pt" viewBox="0 0 512.000000 512.000000"
 preserveAspectRatio="xMidYMid meet">

<g transform="translate(0.000000,512.000000) scale(0.100000,-0.100000)"
fill="#000000" stroke="none">
<path d="M2330 4259 c-465 -54 -825 -406 -833 -814 -2 -82 0 -94 26 -137 66
-113 219 -140 320 -57 46 38 68 87 78 177 22 196 175 351 395 397 94 20 394
20 488 0 159 -34 299 -137 360 -264 29 -62 31 -73 31 -176 0 -106 -1 -113 -36
-185 -49 -102 -108 -158 -233 -221 -129 -65 -207 -121 -281 -201 -195 -207
-302 -507 -293 -816 3 -107 5 -122 28 -155 14 -21 43 -50 64 -65 35 -24 49
-27 116 -27 67 0 81 3 116 27 74 52 87 83 96 231 19 321 128 523 334 618 168
78 289 180 382 322 99 152 137 287 135 487 0 116 -4 148 -27 225 -73 244 -238
428 -491 546 -101 47 -200 74 -329 88 -110 13 -337 12 -446 0z"/>
<path d="M2480 1264 c-145 -63 -176 -262 -56 -361 63 -52 131 -64 207 -38 148
53 188 248 72 357 -58 56 -151 73 -223 42z"/>
</g>
</svg>
